<?xml version="1.0" encoding="UTF-8" standalone="no"?>
<!-- Created with Inkscape (http://www.inkscape.org/) -->

<svg
   xmlns:dc="http://purl.org/dc/elements/1.1/"
   xmlns:cc="http://creativecommons.org/ns#"
   xmlns:rdf="http://www.w3.org/1999/02/22-rdf-syntax-ns#"
   xmlns:svg="http://www.w3.org/2000/svg"
   xmlns="http://www.w3.org/2000/svg"
   xmlns:sodipodi="http://sodipodi.sourceforge.net/DTD/sodipodi-0.dtd"
   xmlns:inkscape="http://www.inkscape.org/namespaces/inkscape"
   version="1.1"
   id="svg839"
   width="594"
   height="596"
   viewBox="0 0 594 596"
   sodipodi:docname="Ampol_2020.svg"
   inkscape:version="0.92.4 (5da689c313, 2019-01-14)">
  <metadata
     id="metadata845">
    <rdf:RDF>
      <cc:Work
         rdf:about="">
        <dc:format>image/svg+xml</dc:format>
        <dc:type
           rdf:resource="http://purl.org/dc/dcmitype/StillImage" />
        <dc:title></dc:title>
      </cc:Work>
    </rdf:RDF>
  </metadata>
  <defs
     id="defs843" />
  <sodipodi:namedview
     pagecolor="#ffffff"
     bordercolor="#666666"
     borderopacity="1"
     objecttolerance="10"
     gridtolerance="10"
     guidetolerance="10"
     inkscape:pageopacity="0"
     inkscape:pageshadow="2"
     inkscape:window-width="1920"
     inkscape:window-height="1017"
     id="namedview841"
     showgrid="false"
     inkscape:zoom="0.79194631"
     inkscape:cx="452.95349"
     inkscape:cy="270.63997"
     inkscape:window-x="-8"
     inkscape:window-y="-8"
     inkscape:window-maximized="1"
     inkscape:current-layer="svg839" />
  <g
     id="g1542">
    <g
       id="g1528"
       style="">
      <path
         sodipodi:nodetypes="ccccc"
         style="fill:#ff0000"
         d="M 123.05058,415.03307 400.5,1 H 505.1085 L 225.22749,414.76482 Z"
         id="path1461"
         inkscape:connector-curvature="0" />
      <path
         sodipodi:nodetypes="ccccc"
         style="fill:#18249b"
         d="M 507.21924,414.81924 506,1 h 87 v 414.91809 z"
         id="path1435"
         inkscape:connector-curvature="0" />
    </g>
    <g
       id="g1524">
      <path
         style="fill:#ff0000;stroke:none;stroke-width:1px;stroke-linecap:butt;stroke-linejoin:miter;stroke-opacity:1"
         d="M 61.714844 502.875 L 0.47265625 593.47461 L 36.619141 593.47461 L 46.367188 577.69141 L 77.853516 577.69141 L 77.814453 593.47461 L 108.9082 593.47461 L 108.9082 502.875 L 61.714844 502.875 z M 75.498047 530.5293 L 77.972656 530.5293 L 77.902344 558.5918 L 58.164062 558.5918 L 75.498047 530.5293 z "
         id="path1494" />
      <path
         style="fill:#ff0000;stroke:none;stroke-width:1px;stroke-linecap:butt;stroke-linejoin:miter;stroke-opacity:1"
         d="m 154.46688,593.317 h -31.25053 l 9.37516,-90.39892 h 47.32222 l 13.39308,47.54592 h 1.54542 l 13.81091,-47.589 h 46.40466 l 8.99682,90.442 -31.88348,0 -5.36652,-57.296 h -1.73623 l -17.04661,56.82222 h -31.25212 l -16.09957,-56.82203 -1.73623,-1.9e-4 z"
         id="path1500"
         inkscape:connector-curvature="0"
         sodipodi:nodetypes="ccccccccccccccccc" />
      <path
         style="fill:#ff0000;stroke:none;stroke-width:1px;stroke-linecap:butt;stroke-linejoin:miter;stroke-opacity:1;opacity:1"
         d="M 278.91016 502.91797 L 278.91016 593.31641 L 310.83203 593.31641 L 310.83203 568.87891 L 343.75586 568.87891 C 343.75586 568.87891 376.12305 566.57553 376.12305 535.73047 C 376.12305 504.54192 343.86719 502.91797 343.86719 502.91797 L 278.91016 502.91797 z M 310.87305 525.22852 L 332.36914 525.22852 C 332.36914 525.22852 343.04297 525.81032 343.04297 537.00977 C 343.04297 548.08586 332.33203 548.91406 332.33203 548.91406 L 310.87305 548.91406 L 310.87305 525.22852 z "
         id="path1502" />
      <path
         style="opacity:1;fill:#ff0000;fill-opacity:1;stroke:none;stroke-width:12.00099754;stroke-miterlimit:4;stroke-dasharray:none;stroke-opacity:1"
         d="M 441.95703 500.13867 C 405.05036 500.13867 383.22266 519.98436 383.22266 548.10742 C 383.22266 573.69058 405.01374 595.73828 441.50977 595.73828 C 476.5591 595.73828 499.98438 575.04536 499.98438 547.59961 C 499.98438 520.66185 478.01549 500.13867 441.95703 500.13867 z M 441.39648 525.91992 C 458.08394 525.91992 466.01953 535.2242 466.01953 547.7793 C 466.01953 560.57116 457.847 569.95703 441.39648 569.95703 C 425.18272 569.95703 416.85352 559.94133 416.85352 548.01758 C 416.85352 534.91004 425.1038 525.91992 441.39648 525.91992 z "
         id="path1510" />
      <path
         style="opacity:1;fill:#ff0000;fill-opacity:1;stroke:none;stroke-width:3.770298;stroke-miterlimit:4;stroke-dasharray:none;stroke-opacity:1"
         d="m 511.08203,502.7168 v 89.65234 h 81.91992 v -25.72656 h -49.7207 V 502.7168 Z"
         id="rect1513"
         inkscape:connector-curvature="0"
         sodipodi:nodetypes="ccccccc" />
    </g>
  </g>
  <g
     id="g1492" />
</svg>
