<?xml version="1.0" encoding="UTF-8" standalone="no"?>
<!-- Generator: Adobe Illustrator 16.0.0, SVG Export Plug-In . SVG Version: 6.00 Build 0)  -->

<svg
   version="1.1"
   x="0px"
   y="0px"
   width="746.27899"
   height="1000"
   viewBox="0 0 746.27897 1000"
   enable-background="new 0 0 212.6 283.5"
   xml:space="preserve"
   id="svg31083"
   inkscape:version="1.1.2 (b8e25be833, 2022-02-05)"
   sodipodi:docname="BP.svg"
   xmlns:inkscape="http://www.inkscape.org/namespaces/inkscape"
   xmlns:sodipodi="http://sodipodi.sourceforge.net/DTD/sodipodi-0.dtd"
   xmlns="http://www.w3.org/2000/svg"
   xmlns:svg="http://www.w3.org/2000/svg"
   xmlns:rdf="http://www.w3.org/1999/02/22-rdf-syntax-ns#"
   xmlns:cc="http://creativecommons.org/ns#"
   xmlns:dc="http://purl.org/dc/elements/1.1/"><metadata
   id="metadata31103"><rdf:RDF><cc:Work
       rdf:about=""><dc:format>image/svg+xml</dc:format><dc:type
         rdf:resource="http://purl.org/dc/dcmitype/StillImage" /></cc:Work></rdf:RDF></metadata><defs
   id="defs31101">
	
</defs><sodipodi:namedview
   pagecolor="#ffffff"
   bordercolor="#666666"
   borderopacity="1"
   objecttolerance="10"
   gridtolerance="10"
   guidetolerance="10"
   inkscape:pageopacity="0"
   inkscape:pageshadow="2"
   inkscape:window-width="1920"
   inkscape:window-height="1001"
   id="namedview31099"
   showgrid="false"
   inkscape:zoom="0.14715803"
   inkscape:cx="696.53014"
   inkscape:cy="608.18973"
   inkscape:window-x="-9"
   inkscape:window-y="-9"
   inkscape:window-maximized="1"
   inkscape:current-layer="svg31083"
   inkscape:pagecheckerboard="0" />
<g
   id="Layer_1"
   transform="matrix(3.5435861,0,0,3.5435861,-3.5435861,-3.54359)">
	<path
   d="m 211.6,194.7 c -6.8,-7.3 -14.3,-13.5 -22.2,-18.5 7.8,-5 15.3,-11.3 22.1,-18.6 -8.9,-4.5 -18.1,-7.8 -27.2,-9.8 5.6,-7.4 10.5,-15.9 14.5,-25 -9.9,-1.2 -19.6,-1.1 -28.9,0.1 2.8,-8.9 4.5,-18.5 5,-28.5 -9.7,2.3 -18.9,5.6 -27.1,9.9 -0.5,-9.3 -2.1,-18.9 -5,-28.5 -8.3,5.5 -15.8,11.8 -22.1,18.6 -3.6,-8.6 -8.5,-17 -14.5,-25 -6,8 -10.8,16.5 -14.4,25.1 C 85.5,87.6 78,81.3 69.7,75.9 v 0 c -2.9,9.5 -4.5,19.1 -5,28.4 -8.3,-4.3 -17.4,-7.6 -27.1,-9.9 0.6,10 2.3,19.6 5.1,28.5 -9.3,-1.2 -19,-1.2 -29,0 3.9,9.2 8.8,17.6 14.5,25 -9.1,2.1 -18.3,5.4 -27.2,9.9 6.8,7.3 14.3,13.5 22.2,18.5 -7.8,5 -15.3,11.3 -22.1,18.6 8.9,4.5 18.1,7.8 27.2,9.8 -5.6,7.4 -10.5,15.9 -14.5,25 9.9,1.2 19.6,1.1 28.8,0 -2.8,8.9 -4.5,18.5 -5,28.4 9.7,-2.3 18.9,-5.6 27.1,-9.9 0.4,9.3 2.1,18.9 5,28.5 8.3,-5.5 15.8,-11.7 22.1,-18.6 3.6,8.6 8.5,17.1 14.5,25.1 6,-8 10.8,-16.5 14.4,-25.1 6.3,6.9 13.8,13.2 22.2,18.6 2.9,-9.5 4.5,-19.1 5,-28.5 8.3,4.3 17.5,7.6 27.2,9.9 -0.6,-10 -2.3,-19.5 -5.1,-28.4 9.2,1.2 19,1.2 28.9,0 -3.9,-9.2 -8.8,-17.6 -14.5,-25 9.1,-2.2 18.3,-5.5 27.2,-10 z"
   id="path31086"
   inkscape:connector-curvature="0"
   style="fill:#009940;fill-opacity:1" />
	<path
   d="m 184.4,204.6 c -5.2,-6.8 -11.1,-12.8 -17.5,-17.7 7.7,-2.4 15.2,-6.1 22.5,-10.7 -7.3,-4.6 -14.8,-8.2 -22.5,-10.6 6.4,-4.9 12.2,-10.9 17.5,-17.8 -8.4,-1.9 -16.7,-2.7 -24.8,-2.3 4.3,-6.8 7.8,-14.4 10.3,-22.7 -8.5,1.1 -16.6,3.2 -24.1,6.3 1.7,-7.9 2.4,-16.2 1.9,-24.9 -7.6,4 -14.5,8.7 -20.4,14.2 -1.1,-8 -3.3,-16.1 -6.7,-24 -5.9,6.4 -10.7,13.2 -14.4,20.4 -3.7,-7.1 -8.6,-14 -14.5,-20.3 -3.3,7.9 -5.5,16 -6.5,23.9 -5.9,-5.4 -12.9,-10.2 -20.6,-14.1 -0.4,8.6 0.3,17 2,24.9 -7.4,-3.1 -15.5,-5.1 -24.1,-6.2 2.6,8.2 6.1,15.8 10.4,22.6 -8,-0.3 -16.4,0.5 -24.9,2.4 5.2,6.8 11.1,12.8 17.5,17.7 -7.7,2.4 -15.2,6.1 -22.5,10.7 7.3,4.6 14.8,8.2 22.5,10.6 -6.4,4.9 -12.2,10.9 -17.5,17.8 8.4,1.9 16.7,2.7 24.7,2.3 -4.3,6.8 -7.8,14.4 -10.3,22.7 8.5,-1.1 16.7,-3.2 24.1,-6.3 -1.7,7.8 -2.4,16.2 -2,24.8 7.7,-4 14.6,-8.7 20.5,-14.1 1.1,8 3.3,16.1 6.6,24 5.8,-6.4 10.7,-13.2 14.4,-20.3 3.7,7.1 8.6,14 14.5,20.3 3.3,-7.9 5.5,-16 6.6,-24 5.9,5.4 12.9,10.2 20.6,14.1 0.4,-8.6 -0.3,-17 -2,-24.8 7.4,3.1 15.6,5.1 24.1,6.2 -2.6,-8.2 -6.1,-15.8 -10.4,-22.6 8.2,0.2 16.6,-0.6 25,-2.5 z"
   id="path31088"
   inkscape:connector-curvature="0"
   style="fill:#80ec13;fill-opacity:1" />
	<path
   id="_x0032_"
   d="m 147.8,176.3 c 6.7,-2.5 13.2,-6.1 19.2,-10.7 -7.2,-2.3 -14.5,-3.4 -21.6,-3.5 5.5,-4.6 10.3,-10.2 14.3,-16.6 -7.5,0.3 -14.8,1.7 -21.5,4.2 3.6,-6.2 6.2,-13.1 7.8,-20.5 -7,2.9 -13.3,6.7 -18.8,11.3 1.2,-7.1 1.3,-14.5 0.3,-22 -5.6,5.1 -10.3,10.9 -13.9,17.1 -1.3,-7.1 -3.7,-14.1 -7.2,-20.8 -3.4,6.7 -5.9,13.6 -7.1,20.6 -3.6,-6.2 -8.3,-11.9 -13.9,-17 -1,7.5 -0.9,14.9 0.3,22 -5.5,-4.6 -11.9,-8.4 -18.9,-11.2 1.6,7.4 4.2,14.3 7.8,20.5 -6.7,-2.4 -14,-3.8 -21.5,-4.1 4.1,6.4 8.9,11.9 14.3,16.6 -7.2,0 -14.5,1.2 -21.7,3.5 6,4.6 12.4,8.2 19.2,10.6 -6.7,2.5 -13.2,6.1 -19.2,10.7 7.2,2.2 14.5,3.4 21.6,3.5 -5.5,4.6 -10.3,10.2 -14.4,16.6 7.5,-0.3 14.8,-1.7 21.5,-4.1 -3.6,6.2 -6.2,13.2 -7.8,20.5 7,-2.9 13.3,-6.7 18.8,-11.3 -1.2,7.1 -1.3,14.4 -0.3,21.9 5.6,-5.1 10.3,-10.8 13.9,-17 1.3,7.1 3.7,14 7.2,20.7 3.5,-6.7 5.9,-13.6 7.2,-20.7 3.6,6.2 8.3,11.9 13.9,17 1,-7.5 0.9,-14.9 -0.3,-21.9 5.5,4.6 11.9,8.4 18.9,11.3 -1.6,-7.4 -4.2,-14.3 -7.8,-20.5 6.8,2.4 14,3.8 21.6,4.1 -4.1,-6.4 -8.9,-11.9 -14.4,-16.6 7.2,0 14.5,-1.2 21.7,-3.5 -6.1,-4.7 -12.5,-8.3 -19.2,-10.7 z"
   inkscape:connector-curvature="0"
   style="fill:#ffff00" />
	<path
   id="_x0031_"
   d="m 127.3,179.9 c 7,0 13.9,-1.3 20.4,-3.7 -6.6,-2.4 -13.4,-3.7 -20.4,-3.7 6.6,-2.4 12.6,-6 17.9,-10.5 -7,0 -13.9,1.1 -20.5,3.5 5.4,-4.5 9.8,-9.9 13.3,-16 -6.6,2.4 -12.6,5.8 -18,10.3 3.5,-6.1 5.8,-12.7 7,-19.5 -5.4,4.5 -9.9,9.8 -13.5,15.9 1.2,-6.9 1.1,-13.9 -0.1,-20.8 -3.5,6 -5.9,12.5 -7.1,19.3 -1.2,-6.9 -3.7,-13.5 -7.2,-19.5 -1.2,6.9 -1.3,13.9 -0.1,20.8 -3.5,-6.1 -8.1,-11.4 -13.4,-15.9 1.2,6.9 3.5,13.5 7,19.5 -5.4,-4.5 -11.5,-7.9 -18,-10.3 3.5,6.1 7.9,11.4 13.3,16 -6.6,-2.4 -13.5,-3.5 -20.4,-3.5 5.3,4.5 11.3,8 17.9,10.5 -7,0 -13.9,1.3 -20.5,3.7 6.6,2.4 13.4,3.7 20.4,3.7 -6.6,2.4 -12.6,6 -18,10.5 7,0 13.9,-1.1 20.5,-3.5 -5.4,4.5 -9.8,9.9 -13.3,16 6.6,-2.4 12.7,-5.8 18,-10.3 -3.5,6.1 -5.8,12.7 -7,19.6 5.4,-4.5 9.9,-9.8 13.4,-15.8 -1.2,6.9 -1.1,13.9 0.1,20.7 3.5,-6 6,-12.6 7.2,-19.4 1.2,6.9 3.7,13.4 7.2,19.5 1.2,-6.9 1.3,-13.8 0.1,-20.7 3.5,6.1 8.1,11.4 13.4,15.8 -1.2,-6.9 -3.5,-13.4 -7,-19.5 5.4,4.5 11.5,7.9 18.1,10.3 -3.5,-6.1 -7.9,-11.4 -13.3,-16 6.6,2.4 13.5,3.5 20.5,3.5 -5.3,-4.5 -11.3,-8 -17.9,-10.5 z"
   inkscape:connector-curvature="0"
   style="fill:#ffffff" />
</g>
<g
   id="g31093"
   transform="matrix(3.5435861,0,0,3.5435861,-3.5435861,-3.54359)">
		<path
   style="fill:#009940;fill-opacity:1"
   inkscape:connector-curvature="0"
   id="path31095"
   d="m 163.6,33.5 c 0,6.1 -2.2,14.5 -10.8,14.5 -10.4,0 -10.4,-11.7 -10.4,-14.1 0,-2.4 0,-14.8 10.7,-14.8 9.7,-0.1 10.5,10.7 10.5,14.4 z M 142.6,1 h -7 v 44.8 l -0.2,6.7 h 6.7 l 0.2,-5.6 c 0.7,1.1 1.6,2.4 3.6,3.8 3.2,2.2 6.5,2.4 8.3,2.4 5.1,0 10.1,-2.2 13.1,-6.4 1.9,-2.4 3.6,-6.4 3.6,-13.6 0,-8.2 -2.5,-11.9 -4.4,-14 -3.4,-3.9 -8.1,-4.8 -11.8,-4.8 -8.5,0 -11.2,4.7 -12.2,6.4 V 1 Z" />
		<path
   style="fill:#009940;fill-opacity:1"
   inkscape:connector-curvature="0"
   id="path31097"
   d="m 182.9,35 c 0,-3.3 0,-15.1 11.1,-15.1 8.2,0 10.2,7 10.2,13.7 0,2.7 -0.4,8 -3,11.7 -2.4,3.3 -6.1,3.6 -7.9,3.6 -9.7,-0.1 -10.4,-9.4 -10.4,-13.9 z m -6.6,31.8 h 6.9 V 48.4 c 2,3.3 6,5.6 11.4,5.6 8.9,0 17,-6.1 17,-20 0,-13.8 -7.6,-19.3 -15.6,-19.3 -3,0 -9.2,0.9 -12.7,6.8 l -0.1,-6.2 h -7 c 0.1,3.6 0.2,4.5 0.2,6.1 z" />
	</g>
</svg>
