<svg width="300" height="500" viewBox="0 0 300 500" xmlns="http://www.w3.org/2000/svg">
  <!-- Background -->
  <rect width="100%" height="100%" fill="#E5E5E5"/>

  <!-- Blue left shape -->
  <path d="
    M120,60
    C60,140 40,260 80,360
    C110,430 140,460 150,480
    C120,420 150,360 190,300
    C220,250 200,170 150,120
    C140,110 130,80 120,60
    Z"
    fill="#2F5FAA"/>

  <!-- Red center shape -->
  <path d="
    M150,40
    C200,120 240,200 220,300
    C200,380 150,430 140,480
    C180,420 210,360 240,280
    C260,200 220,120 180,70
    C170,60 160,50 150,40
    Z"
    fill="#E24343"/>

  <!-- Blue right shape -->
  <path d="
    M220,120
    C260,200 260,320 220,400
    C200,440 180,460 170,480
    C210,420 200,360 180,320
    C160,260 180,200 210,150
    C215,140 220,130 220,120
    Z"
    fill="#2F5FAA"/>
</svg>