<?xml version="1.0" encoding="UTF-8" standalone="no"?>
<svg
   xmlns:dc="http://purl.org/dc/elements/1.1/"
   xmlns:cc="http://creativecommons.org/ns#"
   xmlns:rdf="http://www.w3.org/1999/02/22-rdf-syntax-ns#"
   xmlns:svg="http://www.w3.org/2000/svg"
   xmlns="http://www.w3.org/2000/svg"
   xmlns:sodipodi="http://sodipodi.sourceforge.net/DTD/sodipodi-0.dtd"
   xmlns:inkscape="http://www.inkscape.org/namespaces/inkscape"
   width="1000"
   height="925"
   id="svg2"
   version="1.1"
   inkscape:version="0.91 r13725"
   sodipodi:docname="Shell.svg">
  <metadata
     id="metadata4156">
    <rdf:RDF>
      <cc:Work
         rdf:about="">
        <dc:format>image/svg+xml</dc:format>
        <dc:type
           rdf:resource="http://purl.org/dc/dcmitype/StillImage" />
        <dc:title></dc:title>
      </cc:Work>
    </rdf:RDF>
  </metadata>
  <defs
     id="defs4154" />
  <sodipodi:namedview
     pagecolor="#ffffff"
     bordercolor="#666666"
     borderopacity="1"
     objecttolerance="10"
     gridtolerance="10"
     guidetolerance="10"
     inkscape:pageopacity="0"
     inkscape:pageshadow="2"
     inkscape:window-width="1366"
     inkscape:window-height="705"
     id="namedview4152"
     showgrid="false"
     inkscape:zoom="0.30729167"
     inkscape:cx="884.15686"
     inkscape:cy="602.312"
     inkscape:window-x="-8"
     inkscape:window-y="-8"
     inkscape:window-maximized="1"
     inkscape:current-layer="layer1" />
  <g
     inkscape:label="Layer 1"
     inkscape:groupmode="layer"
     id="layer1"
     transform="translate(-448.3112,262.5282)">
    <path
       id="path439"
       d="m 897.5112,549.9718 -184.45,0 -18.62,-149.02 -151.9,-110.5 c -4.45,-17.31 -6.71,-35.11 -6.71,-52.98 0,-29.85 6.29,-59.37 18.46,-86.63 l 268.96,271.95 -261.48,-322.78 c 10.29,-41.88 33.06,-79.63 65.31,-108.23 l 234.37,404.54 -207.67,-442.9 c 26.87,-35.74 64.34,-62.1 107.06,-75.32 l 143.32,502.16 -104.73,-522.86 c 31.87,-17.97 67.81,-27.4 104.39,-27.4 7.73,0 15.47,0.43 23.15,1.27 l 21.35,543.72 21.34,-543.72 c 7.69,-0.84 15.43,-1.27 23.17,-1.27 36.56,0 72.52,9.43 104.38,27.4 l -104.71,522.86 143.31,-502.16 c 42.72,13.22 80.19,39.58 107.07,75.32 l -207.69,442.9 234.38,-404.54 c 32.24,28.6 55.01,66.36 65.29,108.23 l -261.46,322.78 268.95,-271.95 c 12.18,27.26 18.47,56.78 18.47,86.63 0,17.87 -2.26,35.67 -6.71,52.98 l -151.9,110.5 -18.63,149.02 -184.43,0 -27.29,19.85 c -6.84,4.97 -15.07,7.65 -23.53,7.65 -8.46,0 -16.69,-2.68 -23.54,-7.65 m -35.23,67.65 -253.74,0 -23.52,-188.06 -153.89,-111.94 c -6.71,-32.91 -10.1,-66.41 -10.1,-100 0,-276 223.99,-500 500,-500 276,0 500,224 500,500 0,33.59 -3.38,67.09 -10.11,100 l -153.89,111.94 -23.51,188.06 -253.74,0 -14.64,10.65 c -12.82,9.33 -28.27,14.35 -44.12,14.35 -15.85,0 -31.3,-5.02 -44.12,-14.35 l -14.62,-10.65 z"
       clip-path="url(#SVGID_38_)"
       style="fill:#ed1c24"
       inkscape:connector-curvature="0" />
    <path
       id="path441"
       d="m 897.5112,549.9718 -184.45,0 -18.62,-149.02 -151.9,-110.5 c -4.45,-17.31 -6.71,-35.11 -6.71,-52.98 0,-29.85 6.29,-59.37 18.46,-86.63 l 268.96,271.95 -261.48,-322.78 c 10.29,-41.88 33.06,-79.63 65.31,-108.23 l 234.37,404.54 -207.67,-442.9 c 26.87,-35.74 64.34,-62.1 107.06,-75.32 l 143.32,502.16 -104.73,-522.86 c 31.87,-17.97 67.81,-27.4 104.39,-27.4 7.73,0 15.47,0.43 23.15,1.27 l 21.35,543.72 21.34,-543.72 c 7.69,-0.84 15.43,-1.27 23.17,-1.27 36.56,0 72.52,9.43 104.38,27.4 l -104.71,522.86 143.31,-502.16 c 42.72,13.22 80.19,39.58 107.07,75.32 l -207.69,442.9 234.38,-404.54 c 32.24,28.6 55.01,66.36 65.29,108.23 l -261.46,322.78 268.95,-271.95 c 12.18,27.26 18.47,56.78 18.47,86.63 0,17.87 -2.26,35.67 -6.71,52.98 l -151.9,110.5 -18.63,149.02 -184.43,0 -27.29,19.85 c -6.84,4.97 -15.07,7.65 -23.53,7.65 -8.46,0 -16.69,-2.68 -23.54,-7.65"
       clip-path="url(#SVGID_38_)"
       style="fill:#ffd400"
       inkscape:connector-curvature="0" />
    <path
       id="path443"
       d="m 897.5112,549.9718 -184.45,0 -18.62,-149.02 -151.9,-110.5 c -4.45,-17.31 -6.71,-35.11 -6.71,-52.98 0,-29.85 6.29,-59.37 18.46,-86.63 l 268.96,271.95 -261.48,-322.78 c 10.29,-41.88 33.06,-79.63 65.31,-108.23 l 234.37,404.54 -207.67,-442.9 c 26.87,-35.74 64.34,-62.1 107.06,-75.32 l 143.32,502.16 -104.73,-522.86 c 31.87,-17.97 67.81,-27.4 104.39,-27.4 7.73,0 15.47,0.43 23.15,1.27 l 21.35,543.72 21.34,-543.72 c 7.69,-0.84 15.43,-1.27 23.17,-1.27 36.56,0 72.52,9.43 104.38,27.4 l -104.71,522.86 143.31,-502.16 c 42.72,13.22 80.19,39.58 107.07,75.32 l -207.69,442.9 234.38,-404.54 c 32.24,28.6 55.01,66.36 65.29,108.23 l -261.46,322.78 268.95,-271.95 c 12.18,27.26 18.47,56.78 18.47,86.63 0,17.87 -2.26,35.67 -6.71,52.98 l -151.9,110.5 -18.63,149.02 -184.43,0 -27.29,19.85 c -6.84,4.97 -15.07,7.65 -23.53,7.65 -8.46,0 -16.69,-2.68 -23.54,-7.65 l -27.28,-19.85 z"
       stroke-miterlimit="10"
       clip-path="url(#SVGID_38_)"
       style="fill:none;stroke:#ed1c24;stroke-width:0;stroke-miterlimit:10"
       inkscape:connector-curvature="0" />
  </g>
</svg>
